<?xml version="1.0" encoding="utf-8"?>
<!-- Generator: Adobe Illustrator 24.3.0, SVG Export Plug-In . SVG Version: 6.00 Build 0)  -->
<svg version="1.1" id="katman_1" xmlns="http://www.w3.org/2000/svg" xmlns:xlink="http://www.w3.org/1999/xlink" x="0px" y="0px"
	 viewBox="0 0 60 60" style="enable-background:new 0 0 60 60;" xml:space="preserve">
<style type="text/css">
	.st0{fill:#FFFFFF;}
</style>
<g>
	<path class="st0" d="M6.7,39v9.7C6.7,49.4,7.2,50,8,50h27.7c0.7,0,1.3-0.6,1.3-1.3V39c0-0.7-0.6-1.3-1.3-1.3H8
		C7.2,37.7,6.7,38.3,6.7,39z M34.3,47.4h-9.7l7.1-7.1h2.6V47.4z M9.2,40.3h9.7l-3.6,3.6c-0.5,0.5-0.5,1.3,0,1.8
		c0.3,0.3,0.6,0.4,0.9,0.4c0.3,0,0.7-0.1,0.9-0.4l5.4-5.4H28L21,47.4H9.2V40.3z"/>
	<path class="st0" d="M45.8,24.8c0.7,0,1.3-0.5,1.4-1.2l0.9-19.5h5.3l1.2,24.7c0,0.7,0.6,1.2,1.3,1.2c0,0,0,0,0.1,0
		c0.7,0,1.3-0.6,1.2-1.4l-1.2-26c0-0.7-0.6-1.2-1.3-1.2h-7.7c-0.7,0-1.2,0.5-1.3,1.2l-1,20.7C44.5,24.2,45.1,24.8,45.8,24.8z"/>
	<path class="st0" d="M57.8,32.7L30.6,18.4c-0.4-0.2-0.9-0.2-1.3,0c-0.4,0.2-0.6,0.7-0.6,1.1v5L17,18.4c-0.4-0.2-0.9-0.2-1.3,0
		c-0.4,0.2-0.6,0.7-0.6,1.1v5L3.4,18.4c-0.4-0.2-0.9-0.2-1.3,0c-0.4,0.2-0.6,0.7-0.6,1.1v37.6c0,0.7,0.6,1.3,1.3,1.3h38H52h5.2
		c0.7,0,1.3-0.6,1.3-1.3V33.9C58.5,33.4,58.2,33,57.8,32.7z M42.1,55.9V40.3h8.7v15.6H42.1z M55.9,55.9h-2.6V39
		c0-0.7-0.6-1.3-1.3-1.3H40.8c-0.7,0-1.3,0.6-1.3,1.3v16.9H4.1V21.7l11.7,6.2c0.4,0.2,0.9,0.2,1.3,0c0.4-0.2,0.6-0.7,0.6-1.1v-5
		l11.7,6.2c0.4,0.2,0.9,0.2,1.3,0c0.4-0.2,0.6-0.7,0.6-1.1v-5l24.6,12.9V55.9z"/>
</g>
</svg>
