<?xml version="1.0" encoding="utf-8"?>
<!-- Generator: Adobe Illustrator 24.3.0, SVG Export Plug-In . SVG Version: 6.00 Build 0)  -->
<svg version="1.1" id="katman_1" xmlns="http://www.w3.org/2000/svg" xmlns:xlink="http://www.w3.org/1999/xlink" x="0px" y="0px"
	 viewBox="0 0 60 60" style="enable-background:new 0 0 60 60;" xml:space="preserve">
<style type="text/css">
	.st0{fill:#FFFFFF;}
</style>
<g>
	<g>
		<g>
			<path class="st0" d="M53.1,32.6c-3.1,0-5.7,2.3-6.2,5.2h-4.3c-3.5,0-6.3,2.8-6.3,6.3v11.5h2.1V44.2c0-2.3,1.9-4.2,4.2-4.2h4.3
				c0.5,3,3.1,5.2,6.2,5.2c3.5,0,6.3-2.8,6.3-6.3C59.4,35.5,56.5,32.6,53.1,32.6z M53.1,43.1c-2.3,0-4.2-1.9-4.2-4.2
				c0-2.3,1.9-4.2,4.2-4.2s4.2,1.9,4.2,4.2C57.3,41.2,55.4,43.1,53.1,43.1z"/>
			<path class="st0" d="M24.8,16.9h-4.2c0-3.5-2.8-6.3-6.3-6.3S8,13.4,8,16.9s2.8,6.3,6.3,6.3c2.7,0,5.1-1.8,5.9-4.2h4.6
				c2.3,0,4.2,1.9,4.2,4.2v32.5H31V23.2C31,19.7,28.2,16.9,24.8,16.9z M14.3,21.1c-2.3,0-4.2-1.9-4.2-4.2s1.9-4.2,4.2-4.2
				s4.2,1.9,4.2,4.2S16.6,21.1,14.3,21.1z"/>
			<path class="st0" d="M17.4,32.6h-4.3c-0.5-3-3.1-5.2-6.2-5.2c-3.5,0-6.3,2.8-6.3,6.3S3.5,40,6.9,40c3.1,0,5.7-2.3,6.2-5.2h4.3
				c2.3,0,4.2,1.9,4.2,4.2v16.8h2.1V38.9C23.7,35.5,20.9,32.6,17.4,32.6z M6.9,37.9c-2.3,0-4.2-1.9-4.2-4.2s1.9-4.2,4.2-4.2
				s4.2,1.9,4.2,4.2S9.2,37.9,6.9,37.9z"/>
			<path class="st0" d="M43.5,25.3h3.4c0.5,3,3.1,5.2,6.2,5.2c3.5,0,6.3-2.8,6.3-6.3s-2.8-6.3-6.3-6.3c-3.1,0-5.7,2.3-6.2,5.2h-3.4
				c-1.7,0-3-1.3-3-3V4.3h-2.1v15.9C38.4,23,40.7,25.3,43.5,25.3z M53.1,20c2.3,0,4.2,1.9,4.2,4.2s-1.9,4.2-4.2,4.2
				s-4.2-1.9-4.2-4.2S50.8,20,53.1,20z"/>
		</g>
	</g>
</g>
</svg>
