<?xml version="1.0" encoding="utf-8"?>
<!-- Generator: Adobe Illustrator 24.3.0, SVG Export Plug-In . SVG Version: 6.00 Build 0)  -->
<svg version="1.1" id="katman_1" xmlns="http://www.w3.org/2000/svg" xmlns:xlink="http://www.w3.org/1999/xlink" x="0px" y="0px"
	 viewBox="0 0 60 60" style="enable-background:new 0 0 60 60;" xml:space="preserve">
<style type="text/css">
	.st0{fill:#FFFFFF;}
</style>
<g>
	<g>
		<g>
			<path class="st0" d="M36.4,8.1l4.7-4.7c0.4-0.4,0.4-1.2,0-1.6s-1.2-0.4-1.6,0l-4.7,4.7l-1.6-1.6c-0.2-0.2-0.5-0.3-0.8-0.3
				c-0.3,0-0.6,0.1-0.8,0.3l-3.4,3.4c-1.3,1.3-2.2,3.1-2.4,5c-0.2,1.6,0.1,3.1,0.8,4.5L15,29.4c-1.1,1.1-1.4,2.8-0.8,4.2
				c0.6,1.5,2,2.4,3.6,2.4h10.6l-9.2,9.2c0-2.1-1.8-3.9-3.9-3.9c-2.1,0-3.9,1.8-3.9,3.9v9.4c0,2.1,1.8,3.9,3.9,3.9h9.4
				c2.1,0,3.9-1.8,3.9-3.9c0-2.1-1.7-3.9-3.9-3.9l15.8-15.8c1-1,1.3-2.3,1-3.6c0-0.4-0.3-0.9-0.5-1.2c-0.7-1.1-1.9-1.8-3.3-1.8H27.1
				l4.8-4.8c1.2,0.7,2.6,1,3.9,1c2.1,0,4.3-0.8,5.9-2.4l3.4-3.4c0.4-0.4,0.4-1.2,0-1.6L36.4,8.1z M23.6,28.6
				c-0.3,0.3-0.4,0.8-0.3,1.2c0.2,0.4,0.6,0.7,1,0.7h13.3c0.7,0,1.2,0.4,1.5,1l0,0l0,0c0.3,0.6,0.1,1.3-0.4,1.8L21.1,51.1
				c-0.3,0.3-0.4,0.8-0.3,1.2c0.2,0.4,0.6,0.7,1,0.7h2.7c0.9,0,1.6,0.7,1.6,1.6c0,0.9-0.7,1.6-1.6,1.6h-9.4c-0.9,0-1.6-0.7-1.6-1.6
				v-9.4c0-0.9,0.7-1.6,1.6-1.6c0.9,0,1.6,0.7,1.6,1.6V48c0,0.5,0.3,0.9,0.7,1c0.4,0.2,0.9,0.1,1.2-0.3l13.1-13.1
				c0.3-0.3,0.4-0.8,0.3-1.2c-0.2-0.4-0.6-0.7-1-0.7H17.7c-0.7,0-1.2-0.4-1.5-1c-0.3-0.6-0.1-1.3,0.4-1.8l11.2-11.2l2.3,2.3
				L23.6,28.6z M40.2,20.4c-2.1,2.1-5.3,2.4-7.7,0.7c-0.3-0.2-0.6-0.4-0.8-0.7l-2.1-2.1c-0.2-0.2-0.4-0.5-0.6-0.8
				c-1.5-2.4-1.2-5.5,0.8-7.5l2.6-2.6l10.5,10.5L40.2,20.4z"/>
			<path class="st0" d="M32.2,19.3c0.2,0.2,0.5,0.4,0.7,0.6c0.2,0.1,0.4,0.2,0.6,0.2c0.4,0,0.7-0.2,0.9-0.5c0.4-0.5,0.2-1.2-0.3-1.6
				c-0.2-0.1-0.3-0.2-0.4-0.4c-0.4-0.4-1.2-0.4-1.6,0C31.8,18.1,31.8,18.8,32.2,19.3z"/>
			<path class="st0" d="M31,10.3c-1.5,1.5-2,3.7-1.3,5.7c0.2,0.5,0.6,0.8,1.1,0.8c0.1,0,0.2,0,0.4-0.1c0.6-0.2,0.9-0.8,0.7-1.4
				c-0.4-1.2-0.1-2.5,0.8-3.3c0.4-0.4,0.4-1.2,0-1.6C32.2,9.8,31.5,9.8,31,10.3z"/>
			<path class="st0" d="M48.3,9c-0.4-0.4-1.2-0.4-1.6,0l-2.8,2.8c-0.4,0.4-0.4,1.2,0,1.6c0.2,0.2,0.5,0.3,0.8,0.3s0.6-0.1,0.8-0.3
				l2.8-2.8C48.8,10.1,48.8,9.4,48.3,9z"/>
		</g>
	</g>
</g>
</svg>
