<?xml version="1.0" encoding="utf-8"?>
<!-- Generator: Adobe Illustrator 24.3.0, SVG Export Plug-In . SVG Version: 6.00 Build 0)  -->
<svg version="1.1" id="katman_1" xmlns="http://www.w3.org/2000/svg" xmlns:xlink="http://www.w3.org/1999/xlink" x="0px" y="0px"
	 viewBox="0 0 60 60" style="enable-background:new 0 0 60 60;" xml:space="preserve">
<style type="text/css">
	.st0{fill:#FFFFFF;}
</style>
<g transform="translate(1 1)">
	<g>
		<g>
			<path class="st0" d="M54.2,46c-0.2-0.1-0.5-0.3-0.7-0.4c-1.6-0.8-3.3-1.6-5-2.2c-0.1-0.1-0.2-0.2-0.4-0.3
				c-2.1-0.7-4.5-1.5-6.8-2.1c-0.1,0-0.3,0-0.4,0c-1.1-0.3-2.3-0.5-3.5-0.7c0.1-0.3,0.1-0.7,0.1-1.1v-2.5c3.9-3.5,6.4-9.1,6.3-14.3
				v-4.6c0.1,0,0.1-0.1,0.2-0.1c1.2-1,1.9-2.5,1.9-4c0-7-5.7-12.7-12.6-12.7h-8.3c-7,0-12.7,5.7-12.8,12.6c0,1.6,0.7,3,1.9,4
				c0,0,0.1,0,0.1,0.1v4.8c0,5.3,2.5,11,6.5,14.4v2.4c0,0.3,0,0.6,0.1,1c-5.8,1-11.3,2.8-16.2,5.3l-0.7,0.4C2,46.7,1,48.5,1,50.5
				v5.6C1,56.6,1.4,57,2,57h9.3h35.5H56c0.6,0,0.9-0.4,0.9-0.8v-5.6C57,48.7,55.9,46.9,54.2,46z M41.7,49.5h-3.6l3.6-6.5
				c1.6,0.4,3.1,0.9,4.6,1.4L41.7,49.5z M42.7,16.2C42.7,16.2,42.7,16.3,42.7,16.2c-0.2,0.1-0.3,0.1-0.4,0.2
				c-0.4,0.3-0.8,0.5-1.3,0.6c-0.3,0.1-0.7,0-1,0c-6.7-1.3-13.5-1.4-19.9-0.3c-0.7,0.1-1.4,0.2-2.2,0.3c-0.1,0-0.2,0-0.3,0
				c-0.8,0-1.5-0.2-2.1-0.7c-0.6-0.4-0.9-0.9-1.1-1.5l4-0.7c7-1.3,14.2-1.3,21.4,0l4,0.7C43.5,15.3,43.2,15.8,42.7,16.2z M24.8,2.9
				h8.3c5.7,0,10.4,4.5,10.8,10.1L40,12.3c-7.4-1.3-14.8-1.3-22,0L14.1,13C14.5,7.3,19.2,2.9,24.8,2.9z M15.9,22.5v-3.8
				c0.7,0.2,1.6,0.3,2.4,0.1c3.5-0.6,7-1,10.6-1c3.6,0,7.1,0.3,10.7,1c0.3,0.1,0.5,0.1,0.7,0.1c0.6,0,1.2,0,1.8-0.2v3.8
				c0,8.7-6.4,15.3-12.3,15.8c-0.1,0-0.1,0-0.2,0c0,0-0.1,0-0.1,0c-0.1,0-0.3,0-0.4,0c-0.1,0-0.3,0-0.4,0c0,0-0.1,0-0.1,0
				c-0.1,0-0.1,0-0.2,0c-1.2-0.1-2.4-0.4-3.6-1c0,0,0,0,0,0c0,0,0,0,0,0c-0.8-0.4-1.7-1-2.4-1.6c-0.1-0.1-0.2-0.1-0.3-0.1
				C18.5,32.7,15.9,28,15.9,22.5z M28.6,40.2C28.6,40.2,28.6,40.2,28.6,40.2c0.2,0,0.3,0,0.4,0c0.1,0,0.3,0,0.4,0c0,0,0,0,0,0
				c2.2-0.1,4.3-0.8,6.1-1.9v1c0,3.6-2.9,6.5-6.5,6.5s-6.5-2.9-6.5-6.5v-1C24.3,39.4,26.3,40.1,28.6,40.2z M21.3,42.6
				c0,0,0,0.1,0.1,0.1c0.4,0.9,0.9,1.6,1.5,2.3c0,0,0.1,0.1,0.1,0.1c0,0,0.1,0.1,0.1,0.1c0.1,0.1,0.1,0.1,0.2,0.2c0,0,0,0,0,0
				c1.3,1.2,2.9,1.9,4.8,2.1c0,0,0.1,0,0.1,0c0.1,0,0.2,0,0.3,0c0,0,0.1,0,0.1,0c0.1,0,0.3,0,0.4,0c0.1,0,0.3,0,0.4,0
				c0,0,0.1,0,0.1,0c0.1,0,0.2,0,0.3,0c0,0,0.1,0,0.1,0c2.7-0.3,5-1.7,6.3-4c0,0,0,0,0,0c0,0,0-0.1,0.1-0.1c0.3-0.5,0.5-0.9,0.7-1.4
				c0.9,0.2,1.8,0.3,2.7,0.5l-3.8,6.9H22.1l-3.8-6.9c0.9-0.2,1.9-0.4,2.8-0.5c0.1,0.1,0.1,0.3,0.2,0.4
				C21.3,42.5,21.3,42.6,21.3,42.6z M11.9,44.4c1.5-0.5,3-1,4.6-1.4l3.5,6.5h-3.6L11.9,44.4z M2.9,50.5c0-1.2,0.7-2.3,1.8-2.9
				l0.7-0.4c1.5-0.8,3-1.4,4.6-2.1l4.1,4.5c-2.1,0.5-3.6,2.3-3.6,4.5v0.9H2.9V50.5z M12.2,55.1v-0.9c0-1.6,1.2-2.8,2.8-2.8h0.9h5.6
				h14.9h5.6H43c1.6,0,2.8,1.2,2.8,2.8v0.9H12.2L12.2,55.1z M55.1,55.1h-7.5v-0.9c0-2.3-1.6-4.1-3.7-4.6l4.1-4.5
				c1.6,0.6,3.1,1.3,4.6,2c0.2,0.2,0.5,0.3,0.7,0.4c1.1,0.7,1.8,1.8,1.8,3V55.1L55.1,55.1z"/>
			<path class="st0" d="M24.3,9.4h9.3c0.6,0,0.9-0.4,0.9-0.9V4.7c0-0.6-0.4-0.9-0.9-0.9h-9.3c-0.6,0-0.9,0.4-0.9,0.9v3.7
				C23.4,9,23.8,9.4,24.3,9.4z M25.3,5.7h7.5v1.9h-7.5L25.3,5.7L25.3,5.7z"/>
			<path class="st0" d="M18.7,52.3c-0.6,0-0.9,0.4-0.9,0.9c0,0.6,0.4,0.9,0.9,0.9c0.6,0,0.9-0.4,0.9-0.9
				C19.7,52.7,19.3,52.3,18.7,52.3z"/>
			<path class="st0" d="M39.3,52.3c-0.6,0-0.9,0.4-0.9,0.9c0,0.6,0.4,0.9,0.9,0.9c0.6,0,0.9-0.4,0.9-0.9
				C40.2,52.7,39.8,52.3,39.3,52.3z"/>
		</g>
	</g>
</g>
</svg>
