<?xml version="1.0" encoding="utf-8"?>
<!-- Generator: Adobe Illustrator 24.3.0, SVG Export Plug-In . SVG Version: 6.00 Build 0)  -->
<svg version="1.1" id="katman_1" xmlns="http://www.w3.org/2000/svg" xmlns:xlink="http://www.w3.org/1999/xlink" x="0px" y="0px"
	 viewBox="0 0 60 60" style="enable-background:new 0 0 60 60;" xml:space="preserve">
<style type="text/css">
	.st0{fill:#FFFFFF;}
</style>
<g>
	<g>
		<g>
			<path class="st0" d="M50.3,18.4c-0.2-0.3-0.5-0.6-0.9-0.7c-0.7-0.2-1.5,0.2-1.7,1l-1.2,4.4L36.7,6.2c-1.6-2.8-4.1-4.4-6.7-4.4
				S25,3.4,23.3,6.2l-6.7,11.6c0.5,0.1,0.9,0.2,1.3,0.5c0.4,0.2,0.8,0.6,1.1,0.9l6.7-11.6c2.3-4,6.1-4,8.5,0L44,24.5l-4.4-1.2
				c-0.7-0.2-1.5,0.2-1.7,1c-0.2,0.7,0.2,1.5,1,1.7l7.7,2.1c0.7,0.2,1.5-0.2,1.7-1l2.1-7.7C50.5,19.1,50.4,18.7,50.3,18.4z"/>
		</g>
	</g>
	<g>
		<g>
			<path class="st0" d="M56.9,41.1l-6.7-11.6c-0.3,0.4-0.7,0.7-1.1,0.9c-0.4,0.2-0.9,0.4-1.4,0.5l6.7,11.6c2.3,4,0.4,7.3-4.2,7.3
				H30.6l3.2-3.2c0.6-0.6,0.6-1.4,0-2c-0.6-0.6-1.4-0.6-2,0l-5.6,5.6c-0.6,0.6-0.6,1.4,0,2l5.6,5.6c0.3,0.3,0.6,0.4,1,0.4
				c0.4,0,0.7-0.1,1-0.4c0.6-0.6,0.6-1.4,0-2l-3.2-3.2h19.6c3.3,0,5.9-1.3,7.2-3.6C58.7,46.8,58.5,43.9,56.9,41.1z"/>
		</g>
	</g>
	<g>
		<g>
			<path class="st0" d="M23.2,49.8H9.8l0,0c-4.7,0-6.6-3.3-4.2-7.3l9.8-16.9l1.2,4.4c0.2,0.7,1,1.2,1.7,1c0.7-0.2,1.2-1,1-1.7
				l-2.1-7.7c-0.2-0.7-1-1.2-1.7-1l-7.7,2.1c-0.4,0.1-0.7,0.3-0.9,0.7c-0.2,0.3-0.2,0.7-0.1,1.1c0.2,0.7,1,1.2,1.7,1l4.4-1.2
				L3.1,41.1c-1.6,2.8-1.8,5.7-0.5,8c1.3,2.3,3.9,3.6,7.2,3.6h13.4c-0.2-0.5-0.3-0.9-0.3-1.4C22.9,50.7,23,50.2,23.2,49.8z"/>
		</g>
	</g>
</g>
</svg>
