<?xml version="1.0" encoding="utf-8"?>
<!-- Generator: Adobe Illustrator 24.3.0, SVG Export Plug-In . SVG Version: 6.00 Build 0)  -->
<svg version="1.1" id="katman_1" xmlns="http://www.w3.org/2000/svg" xmlns:xlink="http://www.w3.org/1999/xlink" x="0px" y="0px"
	 viewBox="0 0 60 60" style="enable-background:new 0 0 60 60;" xml:space="preserve">
<style type="text/css">
	.st0{fill:#FFFFFF;}
</style>
<g>
	<g>
		<g>
			<path class="st0" d="M58.7,34.2c0-1.6-0.8-3.1-2.1-4c0.8-0.9,1.3-2,1.3-3.3c0-2.7-2.2-4.8-4.8-4.8H38.9l3.8-8.5
				c0-0.1,0-0.1,0.1-0.2c0.9-3.5-1.1-7.1-4.6-8.1c0,0-0.1,0-0.1-0.1c-0.9-0.3-1.9-0.1-2.8,0.4c-0.8,0.5-1.5,1.3-1.7,2.2l-2.2,4.7
				c-0.8,1.7-1.7,3.7-2.5,5.8c-1,2.6-3.2,4.7-5.9,5.5c-1.6,0.5-3.3,0.8-5,0.8h-0.3v-3c0-0.7-0.6-1.2-1.2-1.2H2.4
				c-0.7,0-1.2,0.6-1.2,1.2v32.1c0,0.7,0.5,1.2,1.2,1.2h14.1c0.7,0,1.2-0.6,1.2-1.2v-2.6h0.6c1.5,0,2.9,0.2,4.3,0.7l2.9,0.9
				c1.6,0.6,3.3,0.8,5.1,0.8h19.8c2.7,0,4.8-2.1,4.8-4.8c0-1.1-0.4-2.1-1-2.9c0.1-0.1,0.2-0.3,0.3-0.4c1.3-0.9,2.1-2.3,2.1-4
				c0-1-0.3-2-0.9-2.8C57.5,38,58.7,36.2,58.7,34.2z M15.3,52.5H3.6V22.7h11.7V52.5z M54.3,36.6c-0.1,0-5.4-0.1-5.4-0.1
				c-0.7,0-1.2,0.5-1.2,1.2c0,0.7,0.5,1.2,1.2,1.2c0,0,2.7,0.1,2.8,0.1c1.4,0,2.5,1.2,2.5,2.5c0,1.2-0.8,2.1-1.9,2.4h-5.6
				c-0.7,0-1.2,0.5-1.2,1.2c0,0.7,0.5,1.2,1.2,1.2c0,0,3.4,0,3.6,0c1.4,0,2.5,1.1,2.5,2.4s-1.1,2.4-2.5,2.4H30.5
				c-1.5,0-2.9-0.2-4.3-0.7l-2.9-1c-1.6-0.6-3.3-0.8-5.1-0.8h-0.6V26.9H18c1.9,0,3.8-0.3,5.7-0.9c3.4-1,6.1-3.5,7.4-6.9
				c0.8-2,4.7-10.6,4.8-10.7c0.1-0.4,0.3-0.7,0.7-0.9c0.3-0.2,0.6-0.2,0.9-0.2c0,0,0.1,0,0.1,0c2.3,0.6,3.7,2.9,3.1,5.2l-4.5,10
				c-0.2,0.4-0.1,0.8,0.1,1.1c0.2,0.3,0.6,0.6,1,0.6h16.1c1.4,0,2.5,1.1,2.5,2.4c0,1.2-0.8,2.1-1.9,2.4h-3.1c-0.7,0-1.2,0.5-1.2,1.2
				s0.5,1.2,1.2,1.2l3.3,0.1c1.4,0,2.5,1.1,2.5,2.5C56.4,35.4,55.5,36.5,54.3,36.6z"/>
			<path class="st0" d="M9.5,50.2c2.3,0,4.1-1.8,4.1-4.1c0-2.3-1.8-4.1-4.1-4.1S5.3,43.8,5.3,46C5.4,48.3,7.2,50.2,9.5,50.2z
				 M9.5,44.3c1,0,1.8,0.8,1.8,1.8s-0.8,1.8-1.8,1.8S7.7,47,7.7,46S8.5,44.3,9.5,44.3z"/>
		</g>
	</g>
</g>
</svg>
