<?xml version="1.0" encoding="utf-8"?>
<!-- Generator: Adobe Illustrator 24.3.0, SVG Export Plug-In . SVG Version: 6.00 Build 0)  -->
<svg version="1.1" id="katman_1" xmlns="http://www.w3.org/2000/svg" xmlns:xlink="http://www.w3.org/1999/xlink" x="0px" y="0px"
	 viewBox="0 0 80 80" style="enable-background:new 0 0 80 80;" xml:space="preserve">
<style type="text/css">
	.st0{fill:#FFFFFF;}
</style>
<path class="st0" d="M40.1,0.5C18.1,0.5,0.4,18.3,0.4,40.2c0,21.9,17.8,39.7,39.7,39.7c21.9,0,39.7-17.8,39.7-39.7
	C79.8,18.3,62,0.5,40.1,0.5z M40.1,78.4C19,78.4,1.9,61.3,1.9,40.2C1.9,19.1,19,2,40.1,2c21.1,0,38.2,17.1,38.2,38.2
	C78.2,61.3,61.2,78.4,40.1,78.4z"/>
<g>
	<g>
		<g>
			<path class="st0" d="M57.8,35.7c-1.2-4.8-4.1-8.8-8.3-11.3c-4.2-2.6-9.1-3.3-13.9-2.2c-4.8,1.2-8.8,4.1-11.3,8.3
				s-3.3,9.1-2.2,13.9c1.2,4.8,4.1,8.8,8.3,11.3c0.5,0.3,0.9,0.5,1.4,0.8c0,0,0.1,0,0.1,0c2.5,1.2,5.2,1.9,8,1.9
				c1.5,0,2.9-0.2,4.4-0.5c4.8-1.2,8.8-4.1,11.3-8.3S59,40.4,57.8,35.7z M35,26.2L35,26.2l-3.4,2.9l-1-0.4
				C31.9,27.6,33.4,26.7,35,26.2z M31,44.3l-0.3,0.3c-0.9,1-1.3,2.3-1,3.6l0.5,2.9c-4.1-3.7-5.8-9.3-4.5-14.6l3.8,2.2
				c0.2,0.1,0.4,0.4,0.3,0.7c-0.4,1.4,0,2.9,1,4l0.1,0.1C31.2,43.7,31.2,44.1,31,44.3z M41.1,54.7l-0.1-0.8c0.5-0.2,1.2,0,1.5,0.5
				l0.1,0.2C42,54.6,41.5,54.7,41.1,54.7z M52.6,47.7c-1.6,2.6-3.9,4.5-6.5,5.7l-0.7-1.1c-1.3-2-3.9-2.7-6.1-1.8l-1.2,0.5
				c-0.8,0.3-1.2,1.1-1.1,1.9l0.2,1.5c-1-0.2-2-0.5-3-0.9l-1-6c0-0.2,0-0.4,0.2-0.5l0.3-0.3c1.5-1.6,1.4-4.2-0.1-5.8l-0.1-0.1
				c-0.2-0.2-0.2-0.4-0.2-0.6c0.5-1.8-0.4-3.8-2-4.7L27,33c0.1-0.2,0.3-0.5,0.4-0.7c0.2-0.3,0.3-0.5,0.5-0.8l3.3,1.3
				C31.5,33,31.7,33,32,33c0.4,0,0.9-0.2,1.2-0.4l4.6-4c0.3-0.2,0.5-0.6,0.6-0.9l0.6-2.3c0.4,0,0.7,0,1.1,0c2.6,0,5.3,0.7,7.6,2.2
				c0.1,0.1,0.2,0.1,0.3,0.2l-1.6,1.8l-5.5,0.2c-0.6,0-1.1,0.3-1.5,0.9l-2.5,4c-0.4,0.6-0.4,1.4,0.1,2l1.6,2.1
				c0.3,0.3,0.4,0.8,0.4,1.2l0,2.7c0,1.2,0.5,2.4,1.5,3.2c0.7,0.6,1.7,1,2.6,1c0.2,0,0.5,0,0.7-0.1l3-0.5c1.2-0.2,2.3-0.8,3.2-1.7
				c0.4-0.4,0.9-0.6,1.4-0.6c0.5,0,1.1,0.2,1.4,0.6l0.8,0.8c0,0,0.1,0.1,0.1,0.1C53.5,46,53.1,46.9,52.6,47.7z M54.7,41.1
				c-1-0.7-2.2-1.1-3.4-1c-1.5,0-2.9,0.7-4,1.8c-0.3,0.3-0.7,0.5-1.1,0.6l-3,0.5c-0.2,0-0.3,0-0.4-0.1s-0.2-0.2-0.2-0.4l0-2.7
				c0-1.2-0.4-2.4-1.1-3.4l-0.8-1.1l1.3-2.1l5.3-0.2c0.5,0,0.9-0.2,1.3-0.6l2.3-2.5C53.6,33,55,37.1,54.7,41.1z"/>
		</g>
	</g>
	<g>
		<g>
			<path class="st0" d="M58.7,21.1l-0.5,0.5c-4.9-4.8-11.3-7.5-18.2-7.5c-6.3,0-12.4,2.3-17.1,6.4c-5.6,4.9-8.8,12-8.8,19.5
				c0,1,0.8,1.8,1.8,1.8c1,0,1.8-0.8,1.8-1.8c0-6.4,2.8-12.5,7.6-16.8c4.1-3.6,9.3-5.5,14.7-5.5c5.9,0,11.5,2.3,15.7,6.4
				c0,0,0,0,0.1,0.1l-0.5,0.6c-0.7,0.7-0.1,1.9,0.9,1.8l3.3-0.2c0.6,0,1-0.5,1-1.1l0.1-3.5C60.6,20.8,59.4,20.3,58.7,21.1z"/>
		</g>
	</g>
	<g>
		<g>
			<path class="st0" d="M64.1,38.2c-1,0-1.8,0.8-1.8,1.8c0,5.5-2,10.7-5.6,14.8c-4.2,4.8-10.3,7.5-16.7,7.5c-5.4,0-10.6-2-14.7-5.5
				c-0.1-0.1-0.1-0.1-0.2-0.2l0.5-0.5c0.7-0.7,0.1-1.9-0.9-1.8l-3.3,0.2c-0.6,0-1,0.5-1,1.1l-0.1,3.5c0,1,1.2,1.5,1.9,0.8l0.6-0.6
				c0.1,0.1,0.2,0.2,0.2,0.3c4.7,4.1,10.8,6.4,17.1,6.4c7.4,0,14.4-3.2,19.4-8.7c4.2-4.7,6.5-10.9,6.5-17.2
				C65.9,39,65.1,38.2,64.1,38.2z"/>
		</g>
	</g>
</g>
</svg>
