<?xml version="1.0" encoding="utf-8"?>
<!-- Generator: Adobe Illustrator 24.3.0, SVG Export Plug-In . SVG Version: 6.00 Build 0)  -->
<svg version="1.1" id="katman_1" xmlns="http://www.w3.org/2000/svg" xmlns:xlink="http://www.w3.org/1999/xlink" x="0px" y="0px"
	 viewBox="0 0 80 80" style="enable-background:new 0 0 80 80;" xml:space="preserve">
<style type="text/css">
	.st0{fill:#FFFFFF;}
</style>
<path class="st0" d="M40.1,0.5C18.1,0.5,0.4,18.3,0.4,40.2c0,21.9,17.8,39.7,39.7,39.7c21.9,0,39.7-17.8,39.7-39.7
	C79.8,18.3,62,0.5,40.1,0.5z M40.1,78.4C19,78.4,1.9,61.3,1.9,40.2C1.9,19.1,19,2,40.1,2c21.1,0,38.2,17.1,38.2,38.2
	C78.2,61.3,61.2,78.4,40.1,78.4z"/>
<g>
	<g>
		<g>
			<rect x="13.6" y="35.1" class="st0" width="9.3" height="27.4"/>
			<path class="st0" d="M66.4,60.5L55.3,49.4l-1.4,0.9l-2.2-2.1c3.4-4.8,3-11.5-1.3-15.8c-0.3-0.3-0.6-0.5-0.9-0.8V14.2h-9.3v14.7
				c-1.4,0.2-2.7,0.6-3.9,1.2v-4.5h-9.3v36.8h9.3V52c1.2,0.6,2.6,1,3.9,1.2v9.3h9.3V51.7l1.4,1.4L50,54.7l11.1,11.1
				c0,0,2.4,0,3.9-1.6C66.4,62.5,66.4,60.5,66.4,60.5z M34.9,34.4c3.7-3.7,9.7-3.7,13.4,0c3.7,3.7,3.7,9.7,0,13.4
				c-3.7,3.7-9.7,3.7-13.4,0C31.2,44.1,31.2,38.1,34.9,34.4z"/>
		</g>
	</g>
</g>
</svg>
