<?xml version="1.0" encoding="utf-8"?>
<!-- Generator: Adobe Illustrator 24.3.0, SVG Export Plug-In . SVG Version: 6.00 Build 0)  -->
<svg version="1.1" id="katman_1" xmlns="http://www.w3.org/2000/svg" xmlns:xlink="http://www.w3.org/1999/xlink" x="0px" y="0px"
	 viewBox="0 0 80 80" style="enable-background:new 0 0 80 80;" xml:space="preserve">
<style type="text/css">
	.st0{fill:#FFFFFF;}
</style>
<path class="st0" d="M40.1,0.5C18.1,0.5,0.4,18.3,0.4,40.2c0,21.9,17.8,39.7,39.7,39.7c21.9,0,39.7-17.8,39.7-39.7
	C79.8,18.3,62,0.5,40.1,0.5z M40.1,78.4C19,78.4,1.9,61.3,1.9,40.2C1.9,19.1,19,2,40.1,2c21.1,0,38.2,17.1,38.2,38.2
	C78.2,61.3,61.2,78.4,40.1,78.4z"/>
<g>
	<g>
		<path class="st0" d="M65.3,58.2c-2.8-3.7-4.5-6.7-5.2-9c-2-6.6-4.8-10.5-6.9-13.3c-0.6-0.8-1.1-1.6-1.6-2.3c-0.3-0.4-0.6-1-1-1.6
			c-1.4-2.2-3.4-5.1-5.1-8.1c-0.5-0.8-0.9-1.6-1.3-2.3c-1.7-3.2-3.9-5.8-5.8-5.2c-0.4,0.1-0.7,0.4-0.9,0.8c-0.5,1.3,1,3.8,3.4,7.7
			c1.5,2.3,3.3,5.2,3.1,6.1l0,0.1c-0.6-0.1-2.6-3.2-4-5.4l-1.5-2.4c-4.1-6.4-7.4-11.3-9.4-11l-0.5,0.2c-0.5,0.3-0.8,0.8-0.9,1.4
			c-0.5,2.7,3.5,7.9,6.9,12.5c2.1,2.8,4.8,6.3,4.5,7.2c-0.6,0.1-3.2-2.2-8-8.7c-4.1-5.6-8.3-10.8-10.7-10.5
			c-0.5,0.1-0.8,0.3-1.1,0.7c-1.5,2.1,2.3,6.7,6.2,11.5c0.7,0.8,1.3,1.6,1.9,2.4c5.2,6.6,5.7,8.4,5.6,8.9L32.7,38l-0.3,0.1
			c-1,0.1-2.7-2.2-4.3-4.2l-1.1-1.5c-3.7-5-6.8-8.9-9-8.6c-0.5,0.1-0.9,0.3-1.3,0.8c-1.5,2.1,2,6.6,6.1,11.7
			c1.9,2.3,3.8,4.7,5.2,6.9l0.2,0.3c1.7,2.5,4.2,6.4,4.1,8.9c0,0.4-0.1,0.8-1,0.9c-1,0.1-2.4-0.1-3.8-0.4c-1.4-0.2-2.7-0.5-3.7-0.4
			l-0.2,0c-2.1,0.3-5.2,1.7-6.4,3.3c-0.4,0.5-0.5,1-0.4,1.5c0.2,0.9,1.6,1.1,5.1,1.7c1.5,0.2,3.3,0.5,5,0.9c3.2,0.7,6.3,2,8,2.7
			c0.3,0.1,0.6,0.3,0.8,0.3c2.7,1.1,5.1,1.3,7,1.5c0.8,0.1,1.5,0.2,2.1,0.3c1.6,0.3,3.5,1.8,6,4.5l0.3,0.3l14.3-11.1L65.3,58.2z
			 M39.1,20.3c-0.3-0.5-1.5-1.9-0.4-2.7c1.1-0.9,2,0.6,2.6,1.3C41.8,19.5,39.6,21.2,39.1,20.3z M29.1,16.6c-0.4-0.5-1.4-2.1-0.3-3
			c1.1-0.9,2.4,0.7,2.7,1.1C32.2,15.5,29.8,17.5,29.1,16.6z M20.3,18.5c-0.4-0.5-1.4-2-0.4-2.9c1-0.9,2.4,0.2,2.9,0.8
			C23.6,17.3,21.2,19.7,20.3,18.5z M18.2,28.1c-0.2-0.3-1.5-2-0.4-2.9c1-1,2.4,0.6,2.8,1C21.2,26.7,18.7,29.1,18.2,28.1z M22.4,58.3
			c-0.7-0.1-4.2-0.4-4.3-1c-0.2-1.4,4.4-1.6,4.8-1.5C23.4,56,23.1,58.4,22.4,58.3z"/>
	</g>
</g>
</svg>
