<?xml version="1.0" encoding="utf-8"?>
<!-- Generator: Adobe Illustrator 24.3.0, SVG Export Plug-In . SVG Version: 6.00 Build 0)  -->
<svg version="1.1" id="katman_1" xmlns="http://www.w3.org/2000/svg" xmlns:xlink="http://www.w3.org/1999/xlink" x="0px" y="0px"
	 viewBox="0 0 80 80" style="enable-background:new 0 0 80 80;" xml:space="preserve">
<style type="text/css">
	.st0{fill:#FFFFFF;}
</style>
<path class="st0" d="M40.1,0.5C18.1,0.5,0.4,18.3,0.4,40.2c0,21.9,17.8,39.7,39.7,39.7c21.9,0,39.7-17.8,39.7-39.7
	C79.8,18.3,62,0.5,40.1,0.5z M40.1,78.4C19,78.4,1.9,61.3,1.9,40.2C1.9,19.1,19,2,40.1,2c21.1,0,38.2,17.1,38.2,38.2
	C78.2,61.3,61.2,78.4,40.1,78.4z"/>
<g>
	<g>
		<g>
			<rect x="32.7" y="57.7" class="st0" width="14.6" height="3.5"/>
		</g>
	</g>
	<g>
		<g>
			<rect x="35.7" y="63.2" class="st0" width="8.5" height="3.5"/>
		</g>
	</g>
	<g>
		<g>
			<rect x="39.4" y="37.7" class="st0" width="1.2" height="17.9"/>
		</g>
	</g>
	<g>
		<g>
			<path class="st0" d="M33.8,29.9c-1.2,0-2.1,1-2.1,2.1c0,1.2,1,2.1,2.1,2.1h2.1v-2.1C35.9,30.9,35,29.9,33.8,29.9z"/>
		</g>
	</g>
	<g>
		<g>
			<path class="st0" d="M46.2,29.9c-1.2,0-2.1,1-2.1,2.1v2.1h2.1c1.2,0,2.1-1,2.1-2.1C48.4,30.9,47.4,29.9,46.2,29.9z"/>
		</g>
	</g>
	<g>
		<g>
			<path class="st0" d="M40,13.3c-10.4,0-18.9,8.5-18.9,18.9c0,3.7,1,7.2,3,10.3c1.7,2.7,4.1,4.8,6.8,6.3v6.8h5V37.7h-2.1
				c-3.1,0-5.6-2.5-5.6-5.6c0-3.1,2.5-5.6,5.6-5.6s5.6,2.5,5.6,5.6v2.1h1.2v-2.1c0-3.1,2.5-5.6,5.6-5.6c3.1,0,5.6,2.5,5.6,5.6
				c0,3.1-2.5,5.6-5.6,5.6h-2.1v17.9h5v-6.8c2.8-1.5,5.1-3.7,6.8-6.3c2-3.1,3-6.6,3-10.3C58.9,21.8,50.4,13.3,40,13.3z"/>
		</g>
	</g>
</g>
</svg>
