<?xml version="1.0" encoding="utf-8"?>
<!-- Generator: Adobe Illustrator 24.3.0, SVG Export Plug-In . SVG Version: 6.00 Build 0)  -->
<svg version="1.1" id="katman_1" xmlns="http://www.w3.org/2000/svg" xmlns:xlink="http://www.w3.org/1999/xlink" x="0px" y="0px"
	 viewBox="0 0 80 80" style="enable-background:new 0 0 80 80;" xml:space="preserve">
<style type="text/css">
	.st0{fill:#FFFFFF;}
</style>
<path class="st0" d="M40.1,0.5C18.1,0.5,0.4,18.3,0.4,40.2c0,21.9,17.8,39.7,39.7,39.7c21.9,0,39.7-17.8,39.7-39.7
	C79.8,18.3,62,0.5,40.1,0.5z M40.1,78.4C19,78.4,1.9,61.3,1.9,40.2C1.9,19.1,19,2,40.1,2c21.1,0,38.2,17.1,38.2,38.2
	C78.2,61.3,61.2,78.4,40.1,78.4z"/>
<g>
	<g>
		<g>
			<path class="st0" d="M33.3,53.6c-2.6,0.7-4.9,0.6-7.2-1.1c-1.9-1.4-3-3.4-3.2-5.7l-6.6,9.8c-0.8,1.1,0.1,2.7,1.4,2.7h5.8l2.9,5.9
				c0.6,1.2,2.3,1.3,3,0.1l6-9.7C34.5,55,34,54.4,33.3,53.6z"/>
		</g>
	</g>
	<g>
		<g>
			<path class="st0" d="M63.7,56.6l-7-10.4c-0.1,2.8-1.3,4.9-3.2,6.3c-2.3,1.7-4.7,1.8-7.2,1.1c-0.6,0.7-1,1.2-1.9,1.8l6.2,9.9
				c0.7,1.1,2.4,1.1,3-0.1l2.9-5.9h5.8C63.6,59.3,64.4,57.7,63.7,56.6z"/>
		</g>
	</g>
	<g>
		<g>
			<path class="st0" d="M57.1,33c1-1.6,2.3-3.1,1.6-5.4c-0.8-2.3-2.6-2.8-4.6-3.5c-0.4-0.1-0.6-0.5-0.7-0.9c-0.1-2,0.1-4-1.9-5.5
				c-2-1.5-3.8-0.7-5.8-0.2c-0.4,0.1-0.8,0-1.1-0.3c-1.3-1.6-2.3-3.3-4.8-3.3c-2.5,0-3.4,1.6-4.8,3.3c-0.3,0.3-0.7,0.5-1.1,0.3
				c-2-0.5-3.8-1.3-5.8,0.2c-2,1.4-1.8,3.4-1.9,5.5c0,0.4-0.3,0.8-0.7,0.9c-1.9,0.7-3.8,1.2-4.6,3.5c-0.8,2.3,0.5,3.8,1.6,5.6
				c0.2,0.3,0.2,0.8,0,1.1c-1.1,1.7-2.4,3.2-1.6,5.6c0.8,2.3,2.6,2.8,4.6,3.5c0.4,0.1,0.6,0.5,0.7,0.9c0.1,2-0.1,4,1.9,5.5
				c2,1.5,3.8,0.7,5.8,0.2c0.4-0.1,0.8,0,1.1,0.3c1.3,1.6,2.3,3.3,4.8,3.3c2.5,0,3.5-1.6,4.8-3.3c0.3-0.3,0.7-0.5,1.1-0.3
				c2,0.5,3.8,1.3,5.8-0.2c2-1.5,1.8-3.4,1.9-5.5c0-0.4,0.3-0.8,0.7-0.9c1.9-0.7,3.8-1.2,4.6-3.5c0.8-2.3-0.5-3.8-1.6-5.4
				C56.8,34,56.8,33.4,57.1,33z M39.8,43.9c-5.6,0-10.2-4.6-10.2-10.2c0-5.6,4.6-10.2,10.2-10.2S50,28.1,50,33.7
				C50,39.4,45.4,43.9,39.8,43.9z"/>
		</g>
	</g>
	<g>
		<g>
			<path class="st0" d="M39.8,26.9c-3.8,0-6.8,3.1-6.8,6.8s3.1,6.8,6.8,6.8s6.8-3.1,6.8-6.8C46.6,29.9,43.6,26.9,39.8,26.9z"/>
		</g>
	</g>
</g>
</svg>
