<?xml version="1.0" encoding="utf-8"?>
<!-- Generator: Adobe Illustrator 24.3.0, SVG Export Plug-In . SVG Version: 6.00 Build 0)  -->
<svg version="1.1" id="katman_1" xmlns="http://www.w3.org/2000/svg" xmlns:xlink="http://www.w3.org/1999/xlink" x="0px" y="0px"
	 viewBox="0 0 80 80" style="enable-background:new 0 0 80 80;" xml:space="preserve">
<style type="text/css">
	.st0{fill:#FFFFFF;}
</style>
<path class="st0" d="M40.1,0.5C18.1,0.5,0.4,18.3,0.4,40.2c0,21.9,17.8,39.7,39.7,39.7c21.9,0,39.7-17.8,39.7-39.7
	C79.8,18.3,62,0.5,40.1,0.5z M40.1,78.4C19,78.4,1.9,61.3,1.9,40.2C1.9,19.1,19,2,40.1,2c21.1,0,38.2,17.1,38.2,38.2
	C78.2,61.3,61.2,78.4,40.1,78.4z"/>
<g>
	<g>
		<g>
			<polygon class="st0" points="50.1,53.5 43.1,52.5 40,46.1 36.9,52.5 29.9,53.5 34.9,58.4 33.7,65.4 40,62.1 46.3,65.4 45.1,58.4 
							"/>
		</g>
	</g>
	<g>
		<g>
			<polygon class="st0" points="65.4,49 59.4,48.1 56.7,42.6 54,48.1 47.9,49 52.3,53.3 51.3,59.3 56.7,56.4 62.1,59.3 61.1,53.3 
							"/>
		</g>
	</g>
	<g>
		<g>
			<polygon class="st0" points="32.1,49 26,48.1 23.3,42.6 20.6,48.1 14.6,49 18.9,53.3 17.9,59.3 23.3,56.4 28.7,59.3 27.7,53.3 
							"/>
		</g>
	</g>
	<g>
		<g>
			<path class="st0" d="M45.2,32.7c0.8-1.1,1.4-2.5,1.4-4c0-3.6-2.9-6.6-6.6-6.6s-6.6,2.9-6.6,6.6c0,1.5,0.5,2.9,1.4,4
				c-2.6,1-4.5,3.5-4.5,6.5V45h19.5v-5.9C49.7,36.2,47.9,33.6,45.2,32.7z"/>
		</g>
	</g>
	<g>
		<g>
			<rect x="38.5" y="14.6" class="st0" width="3" height="5"/>
		</g>
	</g>
	<g>
		<g>
			<rect x="30.3" y="18" transform="matrix(0.7071 -0.7071 0.7071 0.7071 -5.1718 28.4994)" class="st0" width="3" height="5"/>
		</g>
	</g>
	<g>
		<g>
			<rect x="25.9" y="27.2" class="st0" width="5" height="3"/>
		</g>
	</g>
	<g>
		<g>
			<rect x="49.1" y="27.2" class="st0" width="5" height="3"/>
		</g>
	</g>
	<g>
		<g>
			<rect x="45.7" y="19" transform="matrix(0.7071 -0.7071 0.7071 0.7071 -0.3785 40.0729)" class="st0" width="5" height="3"/>
		</g>
	</g>
</g>
</svg>
