<?xml version="1.0" encoding="utf-8"?>
<!-- Generator: Adobe Illustrator 24.3.0, SVG Export Plug-In . SVG Version: 6.00 Build 0)  -->
<svg version="1.1" id="katman_1" xmlns="http://www.w3.org/2000/svg" xmlns:xlink="http://www.w3.org/1999/xlink" x="0px" y="0px"
	 viewBox="0 0 80 80" style="enable-background:new 0 0 80 80;" xml:space="preserve">
<style type="text/css">
	.st0{fill:#FFFFFF;}
</style>
<path class="st0" d="M40.1,0.5C18.1,0.5,0.4,18.3,0.4,40.2c0,21.9,17.8,39.7,39.7,39.7c21.9,0,39.7-17.8,39.7-39.7
	C79.8,18.3,62,0.5,40.1,0.5z M40.1,78.4C19,78.4,1.9,61.3,1.9,40.2C1.9,19.1,19,2,40.1,2c21.1,0,38.2,17.1,38.2,38.2
	C78.2,61.3,61.2,78.4,40.1,78.4z"/>
<g>
	<g>
		<path class="st0" d="M35.4,29.3c0.7,0.3,1.4,0.4,2.2,0.4c1.7,0,3.4-0.8,4.6-2.1c1.2-1.3,1.7-3.1,1.5-4.9c-0.2-1.7-1.2-3.3-2.6-4.3
			c-1.5-1-3.3-1.3-5-0.9c-1.7,0.4-3.1,1.6-3.9,3.1c-0.8,1.6-0.9,3.5-0.3,5.2C32.5,27.4,33.8,28.7,35.4,29.3z"/>
		<path class="st0" d="M41.7,61.7C41.7,61.7,41.7,61.7,41.7,61.7C41.7,61.7,41.7,61.7,41.7,61.7C41.7,61.7,41.7,61.7,41.7,61.7
			C41.7,61.7,41.7,61.7,41.7,61.7z"/>
		<path class="st0" d="M52.8,17.3C52.8,17.3,52.8,17.3,52.8,17.3C52.8,17.3,52.8,17.3,52.8,17.3z"/>
		<path class="st0" d="M52.7,17.2C52.6,17.2,52.6,17.2,52.7,17.2C52.6,17.2,52.6,17.2,52.7,17.2z"/>
		<path class="st0" d="M52.6,17.2C52.6,17.2,52.6,17.2,52.6,17.2L52.6,17.2z"/>
		<path class="st0" d="M55.3,19.6l0.9-1.1c0.2-0.3,0.7-0.3,1.1-0.1l9.4,5.8l1.7-3c0.2-0.3,0-0.6-0.3-0.8l-10.2-4.2
			c-0.3-0.1-0.8,0-0.9,0.3l-0.6,1.1l-0.5-0.2c-1-0.4-2.1-0.4-3,0c0,0,0,0,0,0c-0.8-0.6-2-0.4-2.5,0.5c0,0-5.7,8.8-7.7,11.1
			c-1.5,1.8-2.9,2.2-5,2c-1-0.1-13.9-3.4-13.9-3.4c-0.7-0.2-1.4,0.1-1.9,0.7c-1.3-0.2-2.5,0.5-3.2,1.6l-0.2,0.5l-1.2-0.6
			c-0.3-0.2-0.7-0.1-0.9,0.3l-4.9,9.2c-0.2,0.3,0,0.7,0.3,0.9l3.2,1.7l3.3-10.1c0.1-0.4,0.5-0.6,0.9-0.4l1.4,0.4l0.1-0.2l-1-0.5
			l0.2-0.5c0.3-0.6,1-1,1.7-1c0,0.3,0.1,0.7,0.3,0.9c-0.3,0.3-0.6,0.8-0.7,1.2L21,32.1l-1.4-0.4c-0.4-0.1-0.8,0.1-0.9,0.4l-3.5,10.8
			c-0.1,0.4,0.1,0.8,0.4,0.9l9.2,3c0.4,0.1,0.8-0.1,0.9-0.4l3.5-10.8c0.1-0.4-0.1-0.8-0.4-0.9l-1.4-0.4l0.2-0.5
			c0.1-0.3,0.1-0.5,0.2-0.8l8.8,3.3c0.1,0.2,0.8,2.1,1.1,4.1c0.2,1.2,0.4,2.5,0.4,3.8c0,0.9,0,1.8,0,2.7c0,0.9,0.1,1.8,0.5,2.6
			c0,1.2-0.1,2.3-0.2,3.5c-0.1,1.3-0.3,2.5-0.5,3.7c-0.3,1.6-0.7,2.2-0.7,2.2c-0.5,0.2-1.1,0.1-1.6,0.1c-0.6-0.1-1.2-0.2-1.8-0.4
			c-0.5-0.2-1-0.3-1.6-0.5c-0.4-0.2-0.8-0.3-1.2-0.5c-0.2-0.1-0.4-0.2-0.6-0.2c-0.2,0-0.4-0.1-0.6,0c-0.4,0-0.8,0.2-1.2,0.4
			c-0.7,0.5-1,1.5-0.8,2.4c0.2,0.6,0.6,1.1,1.1,1.4c1.8,1,3.7,1.8,5.7,2.3c1.1,0.2,2.2,0.4,3.3,0.2c1.1-0.2,2.2-0.6,3.1-1.5
			c0.2-0.2,0.4-0.4,0.5-0.6c0.1-0.1,0.2-0.3,0.3-0.4c0.2-0.3,0.3-0.5,0.4-0.8c0.3-0.5,0.5-1.1,0.7-1.6c0.4-1.1,0.7-2.3,1-3.5
			c0.2-0.8,0.3-1.5,0.5-2.3c0.3,0,0.6-0.1,0.9-0.1c0.6,1.1,1.1,2.3,1.5,3.5c-1.2,0.5-1.7,1.8-1.2,3c0.3,0.8,0.7,1.5,1.3,2.2
			c0.6,0.7,1.4,1.2,2.3,1.5c0.5,0.1,1,0.2,1.5,0.1c1-0.2,1.9-1,2-2c0.4-2.3,0-4.7-0.5-6.9c-0.3-1.2-0.6-2.4-1-3.6
			c-0.3-0.8-0.5-1.6-0.8-2.3c-0.1-0.2-0.1-0.3-0.2-0.5c0.1-0.5,0.1-1,0-1.5c0-0.5-0.1-1-0.1-1.5c-0.1-1.2-0.3-2.4-0.5-3.6
			c-0.5-2.5-1.1-4.9-2.1-7.3c-0.3-0.6-0.5-1.3-0.9-1.9l3.7-6.9l0.4,0.3l-0.9,1.1c-0.2,0.3-0.2,0.7,0.2,0.9l10,6.1
			c0.3,0.2,0.8,0.1,1.1-0.1l6.1-7.2c0.2-0.3,0.2-0.7-0.2-0.9l-10-6.1c-0.3-0.2-0.8-0.1-1.1,0.1l-0.9,1.1L54.8,20
			c-0.4-0.2-0.8-0.4-1.3-0.5c0.1-0.4,0.1-0.8,0-1.1c0.5-0.2,1.1-0.2,1.6,0.1l0.5,0.2l-0.5,0.9L55.3,19.6z M26.4,33.3l-0.2,0.5
			l-3.9-1.3l0.2-0.5c0.1-0.4,0.3-0.7,0.6-0.9l3.4,1.3C26.5,32.7,26.4,33,26.4,33.3z M53.9,21l0.5,0.3l-2.6,3L51.4,24
			c-0.1,0-0.1-0.1-0.2-0.1l1.7-3.3C53.3,20.7,53.6,20.8,53.9,21z"/>
		<path class="st0" d="M52.7,17.3C52.7,17.3,52.7,17.2,52.7,17.3C52.7,17.2,52.7,17.3,52.7,17.3z"/>
	</g>
</g>
</svg>
