<?xml version="1.0" encoding="utf-8"?>
<!-- Generator: Adobe Illustrator 24.3.0, SVG Export Plug-In . SVG Version: 6.00 Build 0)  -->
<svg version="1.1" id="katman_1" xmlns="http://www.w3.org/2000/svg" xmlns:xlink="http://www.w3.org/1999/xlink" x="0px" y="0px"
	 viewBox="0 0 80 80" style="enable-background:new 0 0 80 80;" xml:space="preserve">
<style type="text/css">
	.st0{fill:#FFFFFF;}
</style>
<path class="st0" d="M40.1,0.5C18.1,0.5,0.4,18.3,0.4,40.2c0,21.9,17.8,39.7,39.7,39.7c21.9,0,39.7-17.8,39.7-39.7
	C79.8,18.3,62,0.5,40.1,0.5z M40.1,78.4C19,78.4,1.9,61.3,1.9,40.2C1.9,19.1,19,2,40.1,2c21.1,0,38.2,17.1,38.2,38.2
	C78.2,61.3,61.2,78.4,40.1,78.4z"/>
<g>
	<g>
		<g>
			<path class="st0" d="M45.5,38.2l3.2-3.2l-3.2-3.2L42.3,35c-1.3-0.9-2.8-1.5-4.5-1.8v-4.5h-4.6v4.5c-1.6,0.3-3.1,0.9-4.5,1.8
				l-3.2-3.2L22.4,35l3.2,3.2c-0.9,1.3-1.5,2.8-1.8,4.5h-4.5v4.6h4.5c0.3,1.6,0.9,3.1,1.8,4.5l-3.2,3.2l3.2,3.2l3.2-3.2
				c1.3,0.9,2.8,1.5,4.5,1.8v4.5h4.6v-4.5c1.6-0.3,3.1-0.9,4.5-1.8l3.2,3.2l3.2-3.2l-3.2-3.2c0.9-1.3,1.5-2.8,1.8-4.5h4.5v-4.6h-4.5
				C47,41,46.4,39.5,45.5,38.2z M35.6,49.9c-2.7,0-5-2.2-5-5c0-2.7,2.2-5,5-5c2.8,0,5,2.2,5,5C40.5,47.7,38.3,49.9,35.6,49.9z"/>
			<path class="st0" d="M50,22.8c-4-2.6-8.7-4.1-13.8-4.1c-14.2,0-25.7,11.5-25.7,25.7c0,5.9,2,11.4,5.4,15.7l3.2-3.2
				c-2.6-3.5-4.1-7.8-4.1-12.5c0-11.7,9.5-21.2,21.2-21.2c3.9,0,7.5,1.1,10.6,3l-2.5,2.6l10.1,0.9l-1.1-10.5L50,22.8z"/>
			<polygon class="st0" points="69.5,45 63.2,38.7 63.2,42.2 54.9,42.2 54.9,47.8 63.2,47.8 63.2,51.3 			"/>
		</g>
	</g>
</g>
</svg>
