<?xml version="1.0" encoding="utf-8"?>
<!-- Generator: Adobe Illustrator 24.3.0, SVG Export Plug-In . SVG Version: 6.00 Build 0)  -->
<svg version="1.1" id="katman_1" xmlns="http://www.w3.org/2000/svg" xmlns:xlink="http://www.w3.org/1999/xlink" x="0px" y="0px"
	 viewBox="0 0 80 80" style="enable-background:new 0 0 80 80;" xml:space="preserve">
<style type="text/css">
	.st0{fill:#FFFFFF;}
</style>
<path class="st0" d="M40.1,0.5C18.1,0.5,0.4,18.3,0.4,40.2c0,21.9,17.8,39.7,39.7,39.7c21.9,0,39.7-17.8,39.7-39.7
	C79.8,18.3,62,0.5,40.1,0.5z M40.1,78.4C19,78.4,1.9,61.3,1.9,40.2C1.9,19.1,19,2,40.1,2c21.1,0,38.2,17.1,38.2,38.2
	C78.2,61.3,61.2,78.4,40.1,78.4z"/>
<g>
	<path class="st0" d="M27.3,30.4c4.5,0,8.2-3.7,8.2-8.2c0-4.5-3.7-8.2-8.2-8.2c-4.5,0-8.2,3.7-8.2,8.2
		C19.1,26.7,22.8,30.4,27.3,30.4z M27.3,16.7c3,0,5.5,2.5,5.5,5.5c0,3-2.4,5.5-5.5,5.5s-5.5-2.5-5.5-5.5
		C21.9,19.1,24.3,16.7,27.3,16.7z"/>
	<path class="st0" d="M52.7,30.4c4.5,0,8.2-3.7,8.2-8.2c0-4.5-3.7-8.2-8.2-8.2c-4.5,0-8.2,3.7-8.2,8.2
		C44.5,26.7,48.2,30.4,52.7,30.4z M52.7,16.7c3,0,5.5,2.5,5.5,5.5c0,3-2.4,5.5-5.5,5.5c-3,0-5.5-2.5-5.5-5.5
		C47.2,19.1,49.7,16.7,52.7,16.7z"/>
	<path class="st0" d="M65.7,41l-1.4-7c-0.4-2.2-2.5-3.9-4.7-3.9h-3c-0.4,0-0.7,0.1-1,0.4l-2.9,2.9l-2.9-2.9c-0.3-0.3-0.6-0.4-1-0.4
		h-3c-0.8,0-1.6,0.2-2.3,0.6C42.3,30.3,41,30,39.7,30c-1.2,0-2.3,0.2-3.4,0.6c-0.6-0.3-1.3-0.5-2.1-0.5h-3c-0.4,0-0.7,0.1-1,0.4
		l-2.9,2.9l-2.9-2.9c-0.3-0.3-0.6-0.4-1-0.4h-3c-2.2,0-4.3,1.7-4.7,3.9l-1.4,7c-0.1,0.4,0,0.8,0.3,1.1c0.3,0.3,0.6,0.5,1.1,0.5h14.2
		c1.1,4.4,5.1,7.7,9.8,7.7s8.8-3.3,9.8-7.7h14.9c0.4,0,0.8-0.2,1.1-0.5C65.7,41.8,65.8,41.4,65.7,41z M18.3,34.5
		c0.2-0.9,1.1-1.7,2.1-1.7h2.4l3.5,3.5c0.3,0.3,0.6,0.4,1,0.4c0.4,0,0.7-0.1,1-0.4l3.5-3.5h0.9c-1.9,1.8-3.1,4.3-3.1,7H17.3
		L18.3,34.5z M39.7,47.6c-4.1,0-7.4-3.3-7.4-7.4c0-4.1,3.3-7.4,7.4-7.4c4.1,0,7.4,3.3,7.4,7.4C47.1,44.3,43.8,47.6,39.7,47.6z
		 M49.8,39.9c-0.1-2.8-1.3-5.3-3.1-7h1.6l3.5,3.5c0.3,0.3,0.6,0.4,1,0.4c0.4,0,0.7-0.1,1-0.4l3.5-3.5h2.4c0.9,0,1.9,0.8,2.1,1.7
		l1.1,5.4H49.8z"/>
	<path class="st0" d="M54.3,55.4c-0.5-2.6-3-4.7-5.7-4.7h-3.9c-0.4,0-0.7,0.1-1,0.4l-4,4.1l-4-4.1c-0.3-0.3-0.6-0.4-1-0.4h-3.9
		c-2.7,0-5.2,2.1-5.7,4.7l-1.8,9c-0.1,0.4,0,0.8,0.3,1.1c0.3,0.3,0.6,0.5,1.1,0.5h30.1c0.4,0,0.8-0.2,1.1-0.5
		c0.3-0.3,0.4-0.7,0.3-1.1L54.3,55.4z M26.3,63.3l1.5-7.4c0.3-1.3,1.7-2.5,3-2.5h3.3l4.6,4.6c0.3,0.3,0.6,0.4,1,0.4
		c0.4,0,0.7-0.1,1-0.4l4.6-4.6h3.3c1.3,0,2.8,1.2,3,2.5l1.5,7.4H26.3z"/>
</g>
</svg>
