<?xml version="1.0" encoding="utf-8"?>
<!-- Generator: Adobe Illustrator 24.3.0, SVG Export Plug-In . SVG Version: 6.00 Build 0)  -->
<svg version="1.1" id="katman_1" xmlns="http://www.w3.org/2000/svg" xmlns:xlink="http://www.w3.org/1999/xlink" x="0px" y="0px"
	 viewBox="0 0 80 80" style="enable-background:new 0 0 80 80;" xml:space="preserve">
<style type="text/css">
	.st0{fill:#FFFFFF;}
</style>
<path class="st0" d="M40.1,0.5C18.1,0.5,0.4,18.3,0.4,40.2c0,21.9,17.8,39.7,39.7,39.7c21.9,0,39.7-17.8,39.7-39.7
	C79.8,18.3,62,0.5,40.1,0.5z M40.1,78.4C19,78.4,1.9,61.3,1.9,40.2C1.9,19.1,19,2,40.1,2c21.1,0,38.2,17.1,38.2,38.2
	C78.2,61.3,61.2,78.4,40.1,78.4z"/>
<g>
	<path class="st0" d="M40.1,32.9c3.6,0,6.5-2.9,6.5-6.5s-2.9-6.5-6.5-6.5s-6.5,2.9-6.5,6.5C33.6,30,36.5,32.9,40.1,32.9z M24.9,51.8
		H13.2c-3.8,0-4-5.8,0.1-5.8h10.2l5.8-8.6c1.7-2.3,3.7-3.4,6.4-3.4h8.7c2.8,0,4.7,1,6.4,3.5l5.9,8.6h10.2c4.1,0,3.9,5.8,0.1,5.8
		H55.3c-0.9,0-2-0.3-2.7-1.3l-4.5-6.4l0,16h-16l0-16l-4.5,6.4C27,51.5,25.8,51.8,24.9,51.8z"/>
	<path class="st0" d="M16.9,29.5c-3.8,0-6.9,3.1-6.9,6.9c0,3.8,3.1,6.9,6.9,6.9s6.9-3.1,6.9-6.9C23.8,32.6,20.7,29.5,16.9,29.5z
		 M16.9,41.9c-3,0-5.5-2.5-5.5-5.5s2.5-5.5,5.5-5.5s5.5,2.5,5.5,5.5C22.4,39.5,20,41.9,16.9,41.9z M20.4,35.1
		c-0.1-0.2-0.4-0.4-0.7-0.2L17.2,36v-2.9c0-0.2,0-0.3-0.2-0.4l0,0c-0.1-0.1-0.2-0.1-0.4-0.1c-0.3,0-0.5,0.2-0.5,0.5v3.8
		c0,0.2,0.1,0.4,0.3,0.5c0.1,0,0.2,0.1,0.3,0.1s0.2,0,0.3-0.1l3.2-1.5c0.1-0.1,0.2-0.2,0.3-0.3C20.5,35.4,20.5,35.2,20.4,35.1
		L20.4,35.1z"/>
	<path class="st0" d="M62.7,33.2v-0.9l-0.9-0.2c-0.1-0.3-0.2-0.6-0.4-0.8l0.5-0.8L61.4,30l-0.8,0.5c-0.3-0.2-0.5-0.3-0.8-0.4
		l-0.2-0.9h-0.9l-0.2,0.9c-0.3,0.1-0.6,0.2-0.8,0.4L57,30l-0.6,0.6l0.5,0.8c-0.2,0.3-0.3,0.5-0.4,0.8l-0.9,0.2v0.9l0.9,0.2
		c0.1,0.3,0.2,0.6,0.4,0.8L56.3,35l0.6,0.6l0.8-0.5c0.3,0.2,0.5,0.3,0.8,0.4l0.2,0.9h0.9l0.2-0.9c0.3-0.1,0.6-0.2,0.8-0.4l0.8,0.5
		L62,35l-0.5-0.8c0.2-0.3,0.3-0.5,0.4-0.8L62.7,33.2z M59.1,34.2c-0.8,0-1.4-0.6-1.4-1.4s0.6-1.4,1.4-1.4c0.8,0,1.4,0.6,1.4,1.4
		S59.9,34.2,59.1,34.2z M68.9,38.3l1.1-0.7l-0.5-1.1l-1.2,0.3c-0.2-0.3-0.5-0.6-0.9-0.9l0.3-1.2l-1.1-0.5l-0.7,1.1
		c-0.4-0.1-0.8-0.1-1.2,0L64,34.2l-1.1,0.5l0.3,1.2c-0.3,0.2-0.6,0.5-0.9,0.9L61,36.5l-0.5,1.1l1.1,0.7c-0.1,0.4-0.1,0.8,0,1.2
		l-1.1,0.7l0.5,1.1l1.2-0.3c0.2,0.3,0.5,0.6,0.9,0.9l-0.3,1.2l1.1,0.5l0.7-1.1c0.4,0.1,0.8,0.1,1.2,0l0.7,1.1l1.1-0.5l-0.3-1.2
		c0.3-0.2,0.6-0.5,0.9-0.9l1.2,0.3l0.5-1.1l-1.1-0.7C68.9,39.1,68.9,38.7,68.9,38.3z M67,39.6c-0.4,1-1.5,1.4-2.5,1s-1.4-1.5-1-2.5
		c0.4-1,1.5-1.4,2.5-1S67.4,38.7,67,39.6z"/>
</g>
<g id="leaf">
</g>
</svg>
